<svg width="102" height="26" fill="none" xmlns="http://www.w3.org/2000/svg"><g clip-path="url(#clip0_5621_101488)"><path d="M26.095 15.727c-.473 0-.907.239-1.144.637a1.305 1.305 0 000 1.314c.237.398.67.656 1.144.637a1.294 1.294 0 001.263-1.294c.02-.697-.553-1.275-1.263-1.294zM24.46 19.11a1.104 1.104 0 100 2.21c.612 0 1.105-.498 1.105-1.116 0-.597-.493-1.095-1.105-1.095zm-2.396 4.557a.952.952 0 00.915-.987.95.95 0 00-.978-.923.952.952 0 00-.915.987.95.95 0 00.978.923zm-2.771-.112a.761.761 0 00-.77.776c0 .438.336.777.77.777s.769-.339.769-.777a.761.761 0 00-.77-.776zm-2.685.929a.66.66 0 00-.651.657.66.66 0 00.651.657.66.66 0 00.65-.657.634.634 0 00-.65-.657zm-2.505.383a.575.575 0 00-.572.578c0 .318.257.577.572.577a.575.575 0 00.572-.577c-.02-.319-.276-.578-.572-.578zm-2.523-.383a.66.66 0 00-.65.657.66.66 0 00.65.657.66.66 0 00.652-.657.66.66 0 00-.651-.657zm-2.685-.953a.768.768 0 00-.67.379.78.78 0 000 .776.774.774 0 001.44-.398.813.813 0 00-.77-.757zm-2.742-1.773a.966.966 0 00-.828.478.924.924 0 000 .955.951.951 0 001.775-.478.951.951 0 00-.947-.955zM3.73 19.11c-.612 0-1.105.497-1.105 1.114 0 .617.493 1.115 1.105 1.115.611 0 1.104-.498 1.104-1.115-.02-.617-.493-1.115-1.104-1.115zm-1.639-3.382a1.28 1.28 0 00-1.144.637 1.304 1.304 0 000 1.314c.237.398.67.657 1.144.637a1.294 1.294 0 001.263-1.294c0-.697-.572-1.274-1.263-1.294zm-.591-4.22c-.83 0-1.5.677-1.5 1.513 0 .836.67 1.513 1.5 1.513.828 0 1.498-.677 1.498-1.513-.02-.836-.67-1.513-1.499-1.513zm.591-3.82a1.32 1.32 0 00-1.144.637 1.304 1.304 0 000 1.314c.237.398.67.657 1.144.637a1.295 1.295 0 001.263-1.294c0-.697-.572-1.275-1.263-1.294zM3.728 4.68c-.395 0-.77.199-.967.557a1.124 1.124 0 000 1.115c.197.338.572.557.967.557a1.117 1.117 0 001.085-1.114C4.793 5.197 4.32 4.7 3.728 4.68zm2.426-2.352a.951.951 0 00-.947.956c0 .517.414.955.947.955a.951.951 0 00.947-.955.951.951 0 00-.947-.956zM8.894.914a.774.774 0 00-.769.776c0 .419.335.777.77.777a.774.774 0 00.769-.777c-.02-.418-.355-.776-.77-.776zm2.683-.719a.668.668 0 00-.67.677.66.66 0 101.322.02c-.02-.398-.297-.697-.652-.697zM14.084 0a.575.575 0 00-.572.577c0 .319.256.578.572.578a.575.575 0 00.572-.578.575.575 0 00-.572-.577zm2.524.195a.66.66 0 00-.651.657.66.66 0 00.651.657.66.66 0 00.65-.657.634.634 0 00-.65-.657zm2.682.719a.768.768 0 00-.67.378.78.78 0 000 .777.774.774 0 001.44-.398c0-.438-.336-.757-.77-.757zm2.743 1.438a.951.951 0 00-.947.955c0 .518.414.956.947.956a.951.951 0 00.947-.956.951.951 0 00-.947-.955zM24.46 4.68c-.611 0-1.105.497-1.105 1.115 0 .617.494 1.114 1.105 1.114.612 0 1.105-.497 1.105-1.114 0-.618-.493-1.115-1.105-1.115zm1.635 3.008a1.32 1.32 0 00-1.144.637 1.304 1.304 0 000 1.314c.237.398.67.657 1.144.637a1.295 1.295 0 001.263-1.294c0-.717-.553-1.294-1.263-1.294zm-5.915 7.304a.57.57 0 00-.512.279.64.64 0 000 .597c.098.18.296.299.513.279a.585.585 0 00.552-.577c.02-.3-.237-.558-.552-.578zm-1.44 2.172a.57.57 0 00-.514.279.64.64 0 000 .597c.099.18.316.299.513.279a.585.585 0 00.552-.578.585.585 0 00-.552-.577zm-2.15 1.391a.652.652 0 00-.552.318.616.616 0 000 .637c.118.2.316.319.552.319a.626.626 0 00.631-.637.626.626 0 00-.63-.637zm-2.527.375a.846.846 0 00-.848.856c0 .477.375.856.848.856a.846.846 0 00.848-.856c-.02-.478-.394-.856-.848-.856zm-2.542-.516a.973.973 0 00-.966.976c0 .537.434.975.966.975a.973.973 0 00.967-.975.973.973 0 00-.967-.976zm-2.288-1.633c-.592 0-1.065.478-1.065 1.075a1.066 1.066 0 102.13 0c0-.597-.473-1.075-1.065-1.075zm-1.521-2.187a.888.888 0 00-.888.896.888.888 0 101.776 0c.02-.478-.395-.896-.888-.896zm-.354-2.391a.702.702 0 00-.69.697c0 .378.316.697.69.697.375 0 .69-.319.69-.697a.677.677 0 00-.69-.697zm.612-2.351a.575.575 0 00-.572.577c0 .318.257.577.572.577a.575.575 0 00.573-.577c.02-.319-.257-.577-.573-.577zm1.46-2.149a.57.57 0 00-.512.279.64.64 0 000 .597.55.55 0 00.513.279.575.575 0 00.572-.578c-.02-.318-.277-.577-.572-.577zm2.13-1.508a.626.626 0 00-.63.637c0 .359.276.637.63.637a.626.626 0 00.632-.637.639.639 0 00-.631-.637zm3.387.062a.853.853 0 00-.815-.888.851.851 0 00-.88.822.853.853 0 00.814.889.851.851 0 00.88-.823zm1.68-.601a.973.973 0 00-.967.976c0 .537.434.975.967.975a.973.973 0 00.966-.975.973.973 0 00-.966-.976zm2.29 1.43c-.592 0-1.065.478-1.065 1.075a1.066 1.066 0 102.13 0c0-.597-.473-1.075-1.065-1.075zm1.517 2.531a.888.888 0 00-.887.896.888.888 0 101.775 0 .888.888 0 00-.887-.896zm-2.327 5.036c.294 0 .532-.24.532-.537a.535.535 0 00-.532-.538.535.535 0 00-.533.538c0 .296.239.537.533.537zm-1.044.597a.795.795 0 00-.79.796c0 .438.355.797.79.797a.795.795 0 00.789-.797c.02-.438-.336-.796-.79-.796zm-2.031 1.078a.837.837 0 000 1.672.837.837 0 000-1.672zm-2.407-.062a.706.706 0 00-.63.378.706.706 0 000 .737.729.729 0 00.63.378c.415 0 .73-.339.73-.737a.724.724 0 00-.73-.756zm-1.776-1.219a.533.533 0 00-.533.537.533.533 0 101.066 0c.02-.278-.237-.537-.533-.537zm-.709-1.57a.397.397 0 000 .796.398.398 0 000-.796zm-.041-2.047a.533.533 0 00-.533.537.533.533 0 101.066 0 .533.533 0 00-.533-.537zm1.046-2.211a.795.795 0 00-.79.796c0 .438.355.796.79.796a.795.795 0 00.789-.796.795.795 0 00-.79-.796zm2.031-1.156a.837.837 0 000 1.672.837.837 0 000-1.672zm2.407.257a.76.76 0 00-.651.359.742.742 0 000 .756.701.701 0 00.65.359.74.74 0 00.71-.737.74.74 0 00-.71-.737zm1.754 1.594a.533.533 0 00-.532.538.533.533 0 101.065 0c.02-.299-.217-.538-.533-.538zm.753 1.891a.397.397 0 000 .796.398.398 0 000-.796zm2.702.617a.702.702 0 00-.69.697c0 .378.315.696.69.696.375 0 .69-.318.69-.696a.702.702 0 00-.69-.697zm2.86.859a.732.732 0 00-.73.737.73.73 0 00.73.736c.414 0 .73-.338.73-.736a.732.732 0 00-.73-.737zm-.732 2.602a.702.702 0 00-.69.697c0 .378.316.696.69.696a.701.701 0 00.691-.696.69.69 0 00-.69-.697zm-1.242 2.195a.596.596 0 000 1.195c.315 0 .572-.28.572-.598a.606.606 0 00-.572-.597zM20.18 19.71c-.177 0-.355.1-.454.26a.49.49 0 000 .517.52.52 0 00.454.26.512.512 0 00.513-.518.525.525 0 00-.513-.518zm-1.578 1.196a.44.44 0 00-.434.438.44.44 0 00.434.438.44.44 0 00.434-.438.44.44 0 00-.434-.438zm-1.796.672a.512.512 0 00-.513.518c0 .278.217.517.513.517a.512.512 0 00.513-.517c-.02-.299-.237-.518-.513-.518zm-2.109.344a.596.596 0 000 1.194.596.596 0 00.592-.597c-.02-.338-.276-.597-.592-.597zm-2.408-.242a.753.753 0 00-.75.756c0 .418.335.757.75.757.414 0 .75-.339.75-.757a.753.753 0 00-.75-.756zm-2.546-.914a.888.888 0 00-.888.896.888.888 0 101.776 0c.02-.498-.395-.896-.888-.896zm-2.227-1.711a1.1 1.1 0 00-.927.517 1.05 1.05 0 000 1.075c.198.339.553.538.927.518a1.053 1.053 0 001.026-1.055c0-.558-.454-1.035-1.026-1.055zM5.64 16.5a1.15 1.15 0 00-1.144 1.155 1.15 1.15 0 001.144 1.154 1.15 1.15 0 001.144-1.154c0-.657-.513-1.155-1.144-1.155zm-.152-1.69a.913.913 0 00-.841-.978.91.91 0 00-.97.848.913.913 0 00.841.979.91.91 0 00.97-.849zm-.232-2.784a.734.734 0 00-.689-.777.732.732 0 00-.769.695.734.734 0 00.689.776.732.732 0 00.769-.694zm.013-3.307a.702.702 0 00-.69.697c0 .378.315.696.69.696.374 0 .69-.318.69-.696a.702.702 0 00-.69-.697zm1.24-1.969a.55.55 0 00-.513.299.64.64 0 000 .597.61.61 0 00.513.298c.315 0 .572-.278.572-.597a.58.58 0 00-.572-.597zm1.5-1.477a.512.512 0 00-.513.518c0 .279.217.518.513.518a.5.5 0 00.513-.518.525.525 0 00-.513-.518zm1.577-1.031a.44.44 0 00-.434.438.44.44 0 00.434.438.44.44 0 00.434-.438.427.427 0 00-.434-.438zm1.794-.82a.512.512 0 00-.513.517.512.512 0 101.026 0 .512.512 0 00-.513-.517zm2.113-.516a.55.55 0 00-.513.299.64.64 0 000 .597c.099.18.316.299.513.299.316 0 .572-.279.572-.598a.606.606 0 00-.572-.597zm2.407-.101a.768.768 0 00-.671.378.78.78 0 000 .776.768.768 0 00.67.379c.415 0 .75-.359.75-.777a.753.753 0 00-.75-.756zm2.464.578a.91.91 0 00-.907.916.91.91 0 00.907.915.91.91 0 00.908-.915.922.922 0 00-.908-.916zm2.33 1.437c-.592 0-1.046.478-1.046 1.055 0 .578.474 1.056 1.046 1.056.592 0 1.045-.478 1.045-1.056 0-.577-.473-1.055-1.045-1.055zm1.854 2.383c-.415 0-.79.22-1.006.577a1.106 1.106 0 000 1.155c.217.358.591.577 1.006.577a1.146 1.146 0 001.124-1.154c-.02-.617-.513-1.135-1.124-1.155zm1.043 3.172a.908.908 0 00-.79.438.945.945 0 000 .916.867.867 0 00.79.438.897.897 0 000-1.792zm4.595 2.622c0 .837-.67 1.513-1.5 1.513a1.504 1.504 0 01-1.498-1.513c0-.836.67-1.513 1.499-1.513.828.02 1.499.697 1.499 1.513z" fill="#EC6519"/><path d="M102 15.327c0-1.433-.809-2.19-2.072-2.707-.986-.398-1.854-.737-2.525-1.015-.65-.26-1.223-.717-1.223-1.215 0-.677.829-1.075 1.934-1.075 1.301 0 2.327.18 3.294.279h.039c.158 0 .257-.12.257-.279V8.2c0-.139-.119-.258-.277-.278-.512-.12-1.814-.399-3.235-.399-2.761 0-4.083 1.195-4.083 2.867 0 1.055.454 2.09 1.756 2.628 1.302.538 3.965 1.175 3.965 2.29 0 .875-.395 1.353-1.736 1.353-1.38 0-2.781-.199-3.373-.279h-.04a.27.27 0 00-.276.28v1.074c0 .16.138.279.276.299.71.16 2.052.398 3.374.398 3.017.04 3.945-1.593 3.945-3.106zM72.805 9.4h-2.979v8.64c0 .16-.138.3-.296.3h-1.48a.305.305 0 01-.295-.3V9.4h-2.979c-.157 0-.295-.1-.295-.278V7.927c0-.16.138-.279.295-.279h8.029c.157 0 .295.12.295.28v1.194c0 .179-.138.278-.295.278zm-9.624 4.814V7.943c0-.16-.138-.279-.295-.279h-1.48c-.158 0-.296.12-.296.279v6.25c0 1.713-.789 2.53-2.386 2.53-1.598 0-2.387-.817-2.387-2.53v-6.25c0-.16-.138-.279-.296-.279h-1.48c-.157 0-.295.12-.295.279v6.25c0 3.206 2.07 4.261 4.458 4.261 2.386 0 4.458-1.035 4.458-4.24zm13.355-.516h4.773a.304.304 0 00.296-.298v-1.095a.305.305 0 00-.296-.299h-4.773v-1.373c0-1.255.04-1.294 1.183-1.294h3.768c.158 0 .296-.14.296-.299v-.956c0-.219-.08-.278-.296-.318-.474-.08-1.44-.22-3.215-.22-2.466 0-3.788-.019-3.788 3.087v4.758c0 3.105 1.322 3.085 3.788 3.085 1.775 0 2.741-.139 3.215-.219.217-.02.296-.1.296-.318v-.956a.305.305 0 00-.296-.298h-3.768c-1.124 0-1.183-.04-1.183-1.294v-1.693zm-29.453 0h4.773a.304.304 0 00.296-.298v-1.095a.305.305 0 00-.296-.299h-4.773v-1.373c0-1.255.04-1.294 1.183-1.294h3.768c.158 0 .296-.14.296-.299v-.956c0-.219-.08-.278-.296-.318-.474-.08-1.44-.22-3.215-.22-2.466 0-3.788-.019-3.788 3.087v4.758c0 3.105 1.322 3.085 3.788 3.085 1.775 0 2.741-.139 3.215-.219.217-.02.296-.1.296-.318v-.956a.305.305 0 00-.296-.298h-3.768c-1.124 0-1.183-.04-1.183-1.294v-1.693zm45.784 4.34l-2.327-4.021c1.223-.478 2.012-1.354 2.012-2.946v-.12c0-2.568-2.111-3.404-4.419-3.404-1.085 0-2.761.08-3.53.199-.297.04-.474.16-.474.458v9.854c0 .16.138.299.296.299h1.499c.158 0 .276-.14.276-.299v-3.723c.335.02 1.539.06 1.933.06h.336l2.15 3.643c.079.14.138.3.295.3h1.815c.118 0 .178-.08.178-.18 0-.04-.02-.08-.04-.12zm-2.386-6.967c0 1.313-.829 1.612-2.368 1.612-.256 0-1.696-.04-1.933-.04V9.398c.257-.04 1.618-.06 1.933-.06 1.5 0 2.368.478 2.368 1.613v.12zm-47.067 6.967l-2.347-4.021c1.223-.478 2.012-1.354 2.012-2.946v-.12c0-2.568-2.11-3.404-4.419-3.404-1.084 0-2.761.08-3.53.199-.296.04-.474.16-.474.458v9.854c0 .16.138.299.296.299h1.5c.157 0 .275-.14.275-.299v-3.723c.336.02 1.539.06 1.934.06h.335l2.15 3.643c.079.14.138.3.296.3h1.815c.118 0 .177-.08.177-.18 0-.04 0-.08-.02-.12zm-2.386-6.967c0 1.313-.829 1.612-2.348 1.612-.256 0-1.696-.04-1.933-.04V9.398c.257-.04 1.618-.06 1.933-.06 1.5 0 2.348.478 2.348 1.613v.12z" fill="#404040"/></g><defs><clipPath id="clip0_5621_101488"><path fill="#fff" d="M0 0h102v26H0z"/></clipPath></defs></svg>