<svg width="161" height="16" fill="none" xmlns="http://www.w3.org/2000/svg"><path d="M4.031 12.218c.402.444.928.665 1.58.665.65 0 1.177-.221 1.579-.665.401-.457.602-1.136.602-2.036 0-.9-.2-1.572-.602-2.016-.402-.457-.929-.685-1.58-.685-.65 0-1.177.228-1.579.685-.402.444-.602 1.115-.602 2.016 0 .9.2 1.579.602 2.036zM4.883 16c-1.496 0-2.687-.499-3.574-1.496C.436 13.507 0 12.066 0 10.182S.436 6.857 1.31 5.86c.886-.998 2.077-1.496 3.573-1.496 1.205 0 2.14.415 2.805 1.246h.104V1.247h3.429v14.545H8.208l-.312-1.143h-.104C7.044 15.55 6.074 16 4.883 16zm13.92 0c-1.829 0-3.242-.499-4.24-1.496-.983-1.011-1.475-2.452-1.475-4.322 0-1.843.506-3.27 1.517-4.28 1.012-1.026 2.41-1.538 4.198-1.538 1.717 0 3.061.54 4.03 1.62.985 1.067 1.476 2.432 1.476 4.094l-.104 1.143h-7.688c.277 1.246 1.004 1.87 2.182 1.87.817 0 1.447-.277 1.89-.831h3.513a4.81 4.81 0 01-.52 1.267 6.397 6.397 0 01-.956 1.185c-.388.388-.914.7-1.58.935-.664.235-1.412.353-2.243.353zm-2.286-7.065h4.364a2.128 2.128 0 00-.748-1.164c-.374-.332-.852-.498-1.434-.498-.596 0-1.08.152-1.455.457a2.09 2.09 0 00-.727 1.205zm9.55 6.857V4.572h3.013l.312 1.142h.104c.637-.9 1.468-1.35 2.493-1.35.485 0 .922.076 1.31.228.401.139.713.319.935.54a4.5 4.5 0 01.52.562c.124.152.207.277.248.374h.104c.07-.153.194-.34.374-.562.194-.221.555-.464 1.08-.727a3.733 3.733 0 011.767-.415c1.08 0 2.023.394 2.826 1.184.817.776 1.226 1.87 1.226 3.283v6.961h-3.428V9.455c0-.652-.139-1.143-.416-1.476-.277-.332-.658-.498-1.143-.498-.443 0-.797.166-1.06.498-.263.333-.395.824-.395 1.476v6.337H32.51V9.455c0-.652-.139-1.143-.416-1.476-.277-.332-.658-.498-1.143-.498-.443 0-.796.166-1.06.498-.262.333-.394.824-.394 1.476v6.337h-3.429zm18.487 0V4.572h3.428v11.22h-3.428zM47.65 3.221c-.347.346-.81.52-1.392.52-.582 0-1.046-.174-1.393-.52-.346-.36-.52-.81-.52-1.35 0-.541.174-.984.52-1.33.347-.36.81-.541 1.392-.541.582 0 1.046.18 1.393.54.36.347.54.79.54 1.33s-.18.99-.54 1.35zm4.6 12.571l-3.013-11.22h3.532l1.663 6.96 1.766-6.96h3.325l1.766 6.96 1.662-6.96h3.533l-3.013 11.22h-3.844L57.86 9.558l-1.766 6.234H52.25zM72.72 16c-1.83 0-3.242-.499-4.24-1.496-.983-1.011-1.475-2.452-1.475-4.322 0-1.843.505-3.27 1.517-4.28 1.011-1.026 2.41-1.538 4.197-1.538 1.718 0 3.062.54 4.031 1.62.984 1.067 1.476 2.432 1.476 4.094l-.104 1.143h-7.689c.277 1.246 1.005 1.87 2.182 1.87.818 0 1.448-.277 1.891-.831h3.512a4.776 4.776 0 01-.52 1.267 6.397 6.397 0 01-.956 1.185c-.387.388-.914.7-1.579.935-.665.235-1.413.353-2.244.353zm-2.287-7.065h4.364a2.129 2.129 0 00-.748-1.164c-.374-.332-.852-.498-1.434-.498-.595 0-1.08.152-1.454.457a2.09 2.09 0 00-.728 1.205zm13.686 3.283c.402.444.928.665 1.579.665.651 0 1.178-.221 1.58-.665.401-.457.602-1.136.602-2.036 0-.9-.201-1.572-.603-2.016-.401-.457-.928-.685-1.579-.685-.651 0-1.177.228-1.58.685-.4.444-.602 1.115-.602 2.016 0 .9.201 1.579.603 2.036zM86.425 16c-1.191 0-2.16-.45-2.909-1.35h-.104l-.311 1.142h-3.013V1.247h3.428V5.61h.104c.665-.83 1.6-1.246 2.805-1.246 1.496 0 2.68.498 3.554 1.496.886.997 1.33 2.438 1.33 4.322s-.444 3.325-1.33 4.322C89.106 15.5 87.92 16 86.425 16zm9.328-.644c-.36.36-.804.54-1.33.54s-.97-.18-1.33-.54a1.852 1.852 0 01-.54-1.33c0-.513.18-.949.54-1.31.36-.373.803-.56 1.33-.56.526 0 .97.187 1.33.56.36.361.54.797.54 1.31s-.18.956-.54 1.33zm6.675.644c-.915 0-1.711-.11-2.39-.332-.679-.236-1.205-.555-1.58-.956a4.648 4.648 0 01-.851-1.247c-.194-.43-.319-.9-.374-1.413h3.532c.056.277.236.52.541.727.304.208.678.312 1.122.312 1.108 0 1.662-.242 1.662-.727 0-.236-.159-.423-.478-.561-.318-.139-.72-.229-1.205-.27a10.006 10.006 0 01-1.538-.27 10.284 10.284 0 01-1.558-.52c-.471-.208-.866-.554-1.185-1.04-.318-.484-.478-1.087-.478-1.807 0-1.039.423-1.884 1.268-2.535.845-.665 2.016-.997 3.512-.997 1.662 0 2.895.367 3.698 1.1.804.721 1.268 1.6 1.393 2.64h-3.533c-.028-.236-.173-.43-.436-.582-.25-.166-.624-.25-1.122-.25-.831 0-1.247.243-1.247.728 0 .222.159.395.478.52.319.124.713.214 1.184.27a8.71 8.71 0 011.559.29 9.528 9.528 0 011.537.52c.485.208.887.561 1.206 1.06.318.485.478 1.087.478 1.807 0 .416-.077.81-.229 1.185-.152.374-.409.748-.769 1.122-.346.374-.879.672-1.6.894-.72.221-1.586.332-2.597.332zm11.637-.208c-1.33 0-2.286-.277-2.868-.831-.581-.568-.872-1.434-.872-2.597V7.688h-1.767V4.571h1.767l.519-2.909h2.909v2.91h2.598v3.116h-2.598v4.052c0 .264.09.485.27.665.18.18.402.27.665.27h1.663v3.117h-2.286zm8.199.208c-1.095 0-2.03-.381-2.805-1.143-.762-.776-1.143-1.918-1.143-3.428V4.57h3.428v6.338c0 .623.153 1.108.457 1.455.305.346.742.52 1.31.52.526 0 .948-.174 1.267-.52.333-.36.499-.845.499-1.455V4.571h3.428v11.221h-3.013l-.311-1.143h-.104c-.79.9-1.794 1.351-3.013 1.351zm12.246-3.782c.402.444.928.665 1.579.665.651 0 1.178-.221 1.579-.665.402-.457.603-1.136.603-2.036 0-.9-.201-1.572-.603-2.016-.401-.457-.928-.685-1.579-.685-.651 0-1.177.228-1.579.685-.402.444-.603 1.115-.603 2.016 0 .9.201 1.579.603 2.036zm.852 3.782c-1.496 0-2.687-.499-3.574-1.496-.873-.997-1.309-2.438-1.309-4.322s.436-3.325 1.309-4.322c.887-.998 2.078-1.496 3.574-1.496 1.205 0 2.14.415 2.805 1.246h.104V1.247h3.429v14.545h-3.013l-.312-1.143h-.104c-.748.9-1.718 1.351-2.909 1.351zm8.725-.208V4.572h3.428v11.22h-3.428zm3.096-12.571c-.346.346-.81.52-1.392.52-.582 0-1.046-.174-1.392-.52-.347-.36-.52-.81-.52-1.35 0-.541.173-.984.52-1.33.346-.36.81-.541 1.392-.541.582 0 1.046.18 1.392.54.36.347.54.79.54 1.33s-.18.99-.54 1.35zm11.852 11.262C158.052 15.494 156.673 16 154.9 16c-1.773 0-3.151-.506-4.135-1.517-.983-1.011-1.475-2.445-1.475-4.301 0-1.856.492-3.29 1.475-4.301.984-1.012 2.362-1.517 4.135-1.517 1.773 0 3.152.505 4.135 1.517.984 1.01 1.476 2.445 1.476 4.3 0 1.857-.492 3.29-1.476 4.302zm-5.714-2.265c.402.444.928.665 1.579.665.651 0 1.178-.221 1.579-.665.402-.457.603-1.136.603-2.036 0-.9-.201-1.572-.603-2.016-.401-.457-.928-.685-1.579-.685-.651 0-1.177.228-1.579.685-.402.444-.603 1.115-.603 2.016 0 .9.201 1.579.603 2.036z" fill="#728899"/></svg>