<svg width="187" height="44" fill="none" xmlns="http://www.w3.org/2000/svg"><path d="M180.055 43.83c-4.123 0-6.909-2.541-6.909-6.814 0-4.292 2.824-6.852 6.909-6.852 4.16 0 6.946 2.56 6.946 6.814 0 4.292-2.748 6.852-6.946 6.852zm0-2.579c2.88 0 4.179-1.468 4.179-4.235 0-2.824-1.356-4.292-4.179-4.292-2.805 0-4.16 1.43-4.16 4.292 0 2.824 1.336 4.235 4.16 4.235z" fill="#fff"/><path d="M161.27 43.622V30.445h2.71v5.233l6.306-5.233h3.916l-6.212 5.215 6.136 7.962h-3.35l-4.857-6.268-1.939 1.562v4.706h-2.71zm-12.959 0V30.445h2.296l6.683 8.527v-8.527h2.654v13.177h-2.259l-6.701-8.49v8.49h-2.673zm-11.25 0V30.445H147v2.598h-7.229v2.447h6.927v2.579h-6.927v2.974H147v2.579h-9.939zm-10.397.018l-2.711-.056V30.445h5.346c2.73 0 5.459.885 5.459 4.01 0 1.562-.696 2.748-2.089 3.445l3.218 5.722h-3.105l-2.768-5.064c-.244.038-.508.038-.753.038h-2.597v5.045zm2.71-7.623c2.259 0 2.655-.395 2.655-1.562 0-1.073-.452-1.45-2.768-1.45h-2.597v3.012h2.71zm-21.083 7.605l6.231-13.177h2.183l6.212 13.177h-3.012l-1.618-3.501h-5.403l-1.619 3.501h-2.974zm5.779-6.061h3.049l-1.543-3.313-1.506 3.313zm-10.086 6.061l-6.043-13.177h3.031l4.085 9.149 4.103-9.149h2.993l-6.004 13.177h-2.165zm-15.262.018l-2.71-.056V30.445h5.346c2.73 0 5.459.885 5.459 4.01 0 1.562-.697 2.748-2.09 3.445l3.22 5.722H94.84l-2.767-5.064c-.245.038-.508.038-.753.038h-2.598v5.045zm2.711-7.623c2.259 0 2.654-.395 2.654-1.562 0-1.073-.452-1.45-2.767-1.45h-2.598v3.012h2.711zM70.35 43.622l6.23-13.177h2.184l6.212 13.177h-3.012l-1.619-3.501h-5.402l-1.62 3.501H70.35zm5.779-6.061h3.049l-1.543-3.313-1.507 3.313zm-10.086 6.061L60 30.445h3.03l4.085 9.149 4.104-9.149h2.993l-6.005 13.177h-2.164zm104.593-17.63l-2.71-.056v-13.14h5.346c2.729 0 5.459.886 5.459 4.01 0 1.563-.697 2.749-2.09 3.445l3.219 5.723h-3.106l-2.767-5.064c-.245.038-.508.038-.753.038h-2.598v5.044zm2.711-7.623c2.259 0 2.654-.396 2.654-1.563 0-1.073-.452-1.45-2.767-1.45h-2.598v3.013h2.711zm-16.673 7.605V12.797h9.939v2.598h-7.229v2.447h6.928v2.579h-6.928v2.974h7.229v2.579h-9.939zm-13.713 0V12.797h5.421c4.311 0 6.984 2.24 6.984 6.532 0 4.386-2.861 6.645-7.379 6.645h-5.026zm5.045-2.56c3.332 0 4.612-1.318 4.612-4.066 0-2.749-1.186-3.972-4.236-3.972h-2.71v8.038h2.334zm-18.004 2.56V12.797h2.296l6.683 8.527v-8.527h2.654v13.177h-2.259l-6.701-8.49v8.49h-2.673zm-15.662 0l6.231-13.177h2.183l6.212 13.177h-3.012l-1.619-3.502h-5.402l-1.619 3.502h-2.974zm5.779-6.062h3.049l-1.543-3.313-1.506 3.313zm-21.937 6.062l5.684-6.909-5.327-6.268h3.502l3.595 4.31 3.595-4.31h3.407l-5.289 6.287 5.854 6.89h-3.482l-4.142-4.913-4.028 4.913h-3.37zm-11.25 0V12.797h9.939v2.598h-7.229v2.447h6.928v2.579h-6.928v2.974h7.229v2.579h-9.94zm-11.27 0V12.797h2.71v10.598h7.248v2.579h-9.958zm-15.662 0l6.23-13.177h2.184l6.212 13.177h-3.012l-1.618-3.502h-5.403l-1.619 3.502H60zm5.779-6.062h3.05L67.284 16.6l-1.506 3.313z" fill="#fff"/><path d="M25.077 44L5 0h8.923L34 44h-8.923zm16 0L21 0h8.923L50 44h-8.923z" fill="#BF271B"/><circle cx="5.5" cy="38.5" r="5.5" fill="#BF271B"/><ellipse cx="50" cy="5.5" rx="5" ry="5.5" fill="#BF271B"/></svg>