<svg width="300" height="64" fill="none" xmlns="http://www.w3.org/2000/svg"><g clip-path="url(#clip0_5591_100200)"><mask id="mask0_5591_100200" style="mask-type:luminance" maskUnits="userSpaceOnUse" x="0" y="0" width="300" height="64"><path d="M0 0h300v63.402H0V0z" fill="#fff"/></mask><g mask="url(#mask0_5591_100200)" fill-rule="evenodd" clip-rule="evenodd"><path d="M82.7 31.703c-7.463 0-12.395 3.642-12.395 9.37 0 11.01 16.436 7.725 16.436 13.23 0 1.776-1.555 2.708-4.043 2.708-3.241 0-8.04-1.864-11.238-4.662l-3.066 6.083c3.688 3.02 9.018 4.973 14.215 4.973 6.93 0 12.44-3.286 12.44-9.502 0-11.233-16.437-8.169-16.437-13.54 0-1.51 1.378-2.266 3.42-2.266 2.532 0 6.663 1.332 9.95 3.242l2.978-6.172c-3.198-2.087-7.774-3.464-12.26-3.464zm45.354 31.436V32.06h-7.907v12.787h-12.882V32.06h-7.907v31.08h7.907V51.062h12.882V63.14h7.907zm14.127 0V32.06h-7.907v31.08h7.907zm6.219-31.08h13.549c7.952 0 12.527 3.907 12.527 10.834 0 7.281-4.575 11.5-12.527 11.5h-5.643v8.745H148.4V32.06zm7.906 6.216v9.901h5.242c3.466 0 5.465-1.732 5.465-5.017 0-3.24-1.999-4.884-5.465-4.884h-5.242zm50.997 24.864V32.06h-7.373v19.18l-14.349-19.18h-6.974v31.08h7.418V44.001l14.304 19.136h6.974v.002zm30.563-24.864V32.06h-24.343v31.08h24.832v-6.216h-16.926v-6.26h14.838v-6.216h-14.838v-6.172h16.437zm23.633 8.613L271.76 32.06h-9.285l-5.997 9.058-5.997-9.058h-9.194l10.394 15.185-11.106 15.895h9.197l6.706-9.9 6.709 9.9h9.462l-11.15-16.25zm38.336-8.48v-6.393h-26.564v6.393h9.284v24.73h7.907v-24.73h9.373z" fill="#fff"/><path d="M29.635 28.354L41.71 7.834 37.32 0 20.49 28.354h9.146z" fill="#75C422"/><path d="M58.54 47.754c0-8.581-7.318-16.043-16.099-16.043H18.66l-4.756 7.835h28.538c4.39 0 8.05 3.73 8.05 7.835 0 4.477-3.66 7.834-8.05 7.834H4.391L0 63.05h44.27c8.05-.373 14.27-7.088 14.27-15.296z" fill="#fff"/></g></g><defs><clipPath id="clip0_5591_100200"><path fill="#fff" d="M0 0h300v64H0z"/></clipPath></defs></svg>