<svg width="102" height="26" viewBox="0 0 102 26" fill="none" xmlns="http://www.w3.org/2000/svg">
<g clip-path="url(#clip0_5621_101488)">
<path d="M26.095 15.7266C25.6216 15.7266 25.1877 15.9655 24.951 16.3636C24.7143 16.7618 24.7143 17.2794 24.951 17.6776C25.1877 18.0757 25.6216 18.3345 26.095 18.3146C26.8052 18.2947 27.3575 17.7174 27.3575 17.0206C27.3772 16.3238 26.8052 15.7465 26.095 15.7266Z" fill="#EC6519"/>
<path d="M24.4601 19.1094C23.8486 19.1094 23.3555 19.6071 23.3555 20.2043C23.3555 20.8215 23.8486 21.3192 24.4601 21.3192C25.0716 21.3192 25.5647 20.8215 25.5647 20.2043C25.5647 19.6071 25.0716 19.1094 24.4601 19.1094Z" fill="#EC6519"/>
<path d="M22.064 23.6673C22.5866 23.6497 22.9961 23.2079 22.9787 22.6805C22.9613 22.153 22.5235 21.7397 22.0009 21.7573C21.4783 21.7748 21.0688 22.2166 21.0862 22.7441C21.1036 23.2715 21.5414 23.6849 22.064 23.6673Z" fill="#EC6519"/>
<path d="M19.2927 23.5547C18.8588 23.5547 18.5234 23.8931 18.5234 24.3311C18.5234 24.7691 18.8588 25.1075 19.2927 25.1075C19.7267 25.1075 20.062 24.7691 20.062 24.3311C20.062 23.8931 19.7267 23.5547 19.2927 23.5547Z" fill="#EC6519"/>
<path d="M16.608 24.4844C16.2529 24.4844 15.957 24.783 15.957 25.1413C15.957 25.4997 16.2529 25.7983 16.608 25.7983C16.963 25.7983 17.2589 25.4997 17.2589 25.1413C17.2786 24.783 16.9828 24.4844 16.608 24.4844Z" fill="#EC6519"/>
<path d="M14.1033 24.8672C13.7877 24.8672 13.5312 25.126 13.5312 25.4445C13.5312 25.7631 13.7877 26.0219 14.1033 26.0219C14.4189 26.0219 14.6753 25.7631 14.6753 25.4445C14.6556 25.126 14.3992 24.8672 14.1033 24.8672Z" fill="#EC6519"/>
<path d="M11.5806 24.4844C11.2256 24.4844 10.9297 24.783 10.9297 25.1413C10.9297 25.4997 11.2256 25.7983 11.5806 25.7983C11.9357 25.7983 12.2316 25.4997 12.2316 25.1413C12.2316 24.783 11.9357 24.4844 11.5806 24.4844Z" fill="#EC6519"/>
<path d="M8.89531 23.5312C8.61916 23.5312 8.36273 23.6706 8.22465 23.9095C8.08657 24.1484 8.08657 24.447 8.22465 24.6859C8.36273 24.9248 8.61916 25.0642 8.89531 25.0642C9.30955 25.0642 9.66461 24.7257 9.66461 24.2878C9.64488 23.8896 9.30955 23.5512 8.89531 23.5312Z" fill="#EC6519"/>
<path d="M6.15302 21.7578C5.81769 21.7578 5.50208 21.937 5.32455 22.2356C5.14702 22.5342 5.14702 22.8926 5.32455 23.1912C5.50208 23.4898 5.79796 23.669 6.15302 23.669C6.66588 23.669 7.09984 23.2509 7.09984 22.7134C7.09984 22.1958 6.6856 21.7578 6.15302 21.7578Z" fill="#EC6519"/>
<path d="M3.72962 19.1094C3.11813 19.1094 2.625 19.6071 2.625 20.2242C2.625 20.8414 3.11813 21.3391 3.72962 21.3391C4.34111 21.3391 4.83424 20.8414 4.83424 20.2242C4.81452 19.6071 4.34111 19.1094 3.72962 19.1094Z" fill="#EC6519"/>
<path d="M2.09113 15.7276C1.61772 15.7077 1.18376 15.9665 0.94706 16.3647C0.710355 16.7629 0.710355 17.2805 0.94706 17.6786C1.18376 18.0768 1.61772 18.3356 2.09113 18.3157C2.80125 18.2958 3.35356 17.7184 3.35356 17.0217C3.35356 16.3249 2.78152 15.7475 2.09113 15.7276Z" fill="#EC6519"/>
<path d="M1.49913 11.5078C0.670663 11.5078 0 12.1847 0 13.0208C0 13.857 0.670663 14.5338 1.49913 14.5338C2.3276 14.5338 2.99826 13.857 2.99826 13.0208C2.97853 12.1847 2.3276 11.5078 1.49913 11.5078Z" fill="#EC6519"/>
<path d="M2.09113 7.6875C1.61772 7.6875 1.18376 7.9264 0.94706 8.32456C0.710355 8.72272 0.710355 9.24033 0.94706 9.6385C1.18376 10.0367 1.61772 10.2955 2.09113 10.2756C2.80125 10.2556 3.35356 9.67831 3.35356 8.98153C3.35356 8.28474 2.78152 7.70741 2.09113 7.6875Z" fill="#EC6519"/>
<path d="M3.72777 4.67969C3.33326 4.67969 2.95848 4.87877 2.76122 5.23711C2.56397 5.57555 2.56397 6.01353 2.76122 6.35197C2.95848 6.69041 3.33326 6.9094 3.72777 6.9094C4.31953 6.88949 4.81266 6.41169 4.81266 5.79454C4.79294 5.1973 4.31953 4.6996 3.72777 4.67969Z" fill="#EC6519"/>
<path d="M6.15385 2.32812C5.64099 2.32812 5.20703 2.7462 5.20703 3.28371C5.20703 3.80133 5.62126 4.2393 6.15385 4.2393C6.66671 4.2393 7.10067 3.82123 7.10067 3.28371C7.10067 2.7661 6.68644 2.32812 6.15385 2.32812Z" fill="#EC6519"/>
<path d="M8.89429 0.914062C8.48006 0.914062 8.125 1.2525 8.125 1.69048C8.125 2.10855 8.46033 2.4669 8.89429 2.4669C9.30852 2.4669 9.66358 2.12846 9.66358 1.69048C9.64385 1.27241 9.30852 0.914062 8.89429 0.914062Z" fill="#EC6519"/>
<path d="M11.5769 0.195312C11.2021 0.195312 10.9062 0.493934 10.9062 0.872188C10.9062 1.25044 11.2021 1.54906 11.5769 1.54906C11.932 1.54906 12.2279 1.25044 12.2279 0.892097C12.2081 0.493934 11.932 0.195312 11.5769 0.195312Z" fill="#EC6519"/>
<path d="M14.0838 0C13.7681 0 13.5117 0.258806 13.5117 0.577335C13.5117 0.895865 13.7681 1.15467 14.0838 1.15467C14.3994 1.15467 14.6558 0.895865 14.6558 0.577335C14.6558 0.258806 14.3994 0 14.0838 0Z" fill="#EC6519"/>
<path d="M16.608 0.195312C16.2529 0.195312 15.957 0.493934 15.957 0.85228C15.957 1.21063 16.2529 1.50925 16.608 1.50925C16.963 1.50925 17.2589 1.21063 17.2589 0.85228C17.2786 0.493934 16.9828 0.195312 16.608 0.195312Z" fill="#EC6519"/>
<path d="M19.2898 0.914062C19.0137 0.914062 18.7573 1.05342 18.6192 1.29232C18.4811 1.53121 18.4811 1.82984 18.6192 2.06873C18.7573 2.30763 19.0137 2.44699 19.2898 2.44699C19.7041 2.44699 20.0591 2.10855 20.0591 1.67057C20.0591 1.23259 19.7238 0.914062 19.2898 0.914062Z" fill="#EC6519"/>
<path d="M22.0328 2.35156C21.5199 2.35156 21.0859 2.76963 21.0859 3.30715C21.0859 3.82476 21.5002 4.26274 22.0328 4.26274C22.5456 4.26274 22.9796 3.84467 22.9796 3.30715C22.9796 2.76963 22.5456 2.35156 22.0328 2.35156Z" fill="#EC6519"/>
<path d="M24.4601 4.67969C23.8486 4.67969 23.3555 5.17739 23.3555 5.79454C23.3555 6.41169 23.8486 6.9094 24.4601 6.9094C25.0716 6.9094 25.5647 6.41169 25.5647 5.79454C25.5647 5.17739 25.0716 4.67969 24.4601 4.67969Z" fill="#EC6519"/>
<path d="M26.095 7.6875C25.6216 7.6875 25.1877 7.9264 24.951 8.32456C24.7143 8.72272 24.7143 9.24033 24.951 9.6385C25.1877 10.0367 25.6216 10.2955 26.095 10.2756C26.8052 10.2556 27.3575 9.67831 27.3575 8.98153C27.3575 8.26484 26.8052 7.6875 26.095 7.6875Z" fill="#EC6519"/>
<path d="M20.1806 14.9922C19.9636 14.9922 19.7663 15.0917 19.6677 15.2709C19.5691 15.4501 19.5691 15.689 19.6677 15.8681C19.7663 16.0473 19.9636 16.1668 20.1806 16.1469C20.4962 16.1269 20.7329 15.8681 20.7329 15.5695C20.7526 15.2709 20.4962 15.0121 20.1806 14.9922Z" fill="#EC6519"/>
<path d="M18.7392 17.1641C18.5222 17.1641 18.3249 17.2636 18.2263 17.4428C18.1277 17.6219 18.1277 17.8608 18.2263 18.04C18.3249 18.2192 18.5419 18.3386 18.7392 18.3187C19.0548 18.2988 19.2915 18.04 19.2915 17.7414C19.2915 17.4428 19.0548 17.184 18.7392 17.1641Z" fill="#EC6519"/>
<path d="M16.5903 18.5547C16.3733 18.5547 16.1563 18.6741 16.038 18.8732C15.9196 19.0723 15.9196 19.3112 16.038 19.5103C16.1563 19.7094 16.3536 19.8288 16.5903 19.8288C16.9454 19.8288 17.2215 19.5501 17.2215 19.1917C17.2215 18.8334 16.9454 18.5547 16.5903 18.5547Z" fill="#EC6519"/>
<path d="M14.063 18.9297C13.5896 18.9297 13.2148 19.3079 13.2148 19.7857C13.2148 20.2635 13.5896 20.6418 14.063 20.6418C14.5364 20.6418 14.9112 20.2635 14.9112 19.7857C14.8915 19.3079 14.5167 18.9297 14.063 18.9297Z" fill="#EC6519"/>
<path d="M11.5212 18.4141C10.9886 18.4141 10.5547 18.852 10.5547 19.3896C10.5547 19.9271 10.9886 20.3651 11.5212 20.3651C12.0538 20.3651 12.4878 19.9271 12.4878 19.3896C12.4878 18.852 12.0538 18.4141 11.5212 18.4141Z" fill="#EC6519"/>
<path d="M9.23314 16.7812C8.64138 16.7812 8.16797 17.259 8.16797 17.8563C8.16797 18.4535 8.64138 18.9313 9.23314 18.9313C9.8249 18.9313 10.2983 18.4535 10.2983 17.8563C10.2983 17.259 9.8249 16.7812 9.23314 16.7812Z" fill="#EC6519"/>
<path d="M7.71186 14.5938C7.21873 14.5938 6.82422 14.9919 6.82422 15.4896C6.82422 15.9873 7.21873 16.3855 7.71186 16.3855C8.205 16.3855 8.5995 15.9873 8.5995 15.4896C8.61923 15.0118 8.205 14.5938 7.71186 14.5938Z" fill="#EC6519"/>
<path d="M7.35836 12.2031C6.98358 12.2031 6.66797 12.5217 6.66797 12.8999C6.66797 13.2782 6.98358 13.5967 7.35836 13.5967C7.73314 13.5967 8.04875 13.2782 8.04875 12.8999C8.04875 12.5017 7.75287 12.2031 7.35836 12.2031Z" fill="#EC6519"/>
<path d="M7.97047 9.85156C7.65487 9.85156 7.39844 10.1104 7.39844 10.4289C7.39844 10.7474 7.65487 11.0062 7.97047 11.0062C8.28608 11.0062 8.54251 10.7474 8.54251 10.4289C8.56224 10.1104 8.28608 9.85156 7.97047 9.85156Z" fill="#EC6519"/>
<path d="M9.43058 7.70312C9.2136 7.70312 9.01635 7.80267 8.91772 7.98184C8.81909 8.16101 8.81909 8.39991 8.91772 8.57908C9.01635 8.75825 9.23333 8.8777 9.43058 8.8578C9.74619 8.8578 10.0026 8.59899 10.0026 8.28046C9.98289 7.96193 9.72646 7.70312 9.43058 7.70312Z" fill="#EC6519"/>
<path d="M11.5609 6.19531C11.2058 6.19531 10.9297 6.47403 10.9297 6.83237C10.9297 7.19072 11.2058 7.46943 11.5609 7.46943C11.916 7.46943 12.1921 7.19072 12.1921 6.83237C12.1921 6.49393 11.916 6.19531 11.5609 6.19531Z" fill="#EC6519"/>
<path d="M14.9465 6.25713C14.9645 5.78468 14.5996 5.38697 14.1315 5.36883C13.6633 5.35068 13.2693 5.71897 13.2513 6.19142C13.2333 6.66388 13.5982 7.06158 14.0663 7.07973C14.5345 7.09787 14.9285 6.72958 14.9465 6.25713Z" fill="#EC6519"/>
<path d="M16.6267 5.65625C16.0941 5.65625 15.6602 6.09423 15.6602 6.63175C15.6602 7.16927 16.0941 7.60725 16.6267 7.60725C17.1593 7.60725 17.5932 7.16927 17.5932 6.63175C17.5932 6.09423 17.1593 5.65625 16.6267 5.65625Z" fill="#EC6519"/>
<path d="M18.9167 7.08594C18.325 7.08594 17.8516 7.56373 17.8516 8.16098C17.8516 8.75822 18.325 9.23601 18.9167 9.23601C19.5085 9.23601 19.9819 8.75822 19.9819 8.16098C19.9819 7.56373 19.5085 7.08594 18.9167 7.08594Z" fill="#EC6519"/>
<path d="M20.4345 9.61719C19.9414 9.61719 19.5469 10.0153 19.5469 10.5131C19.5469 11.0108 19.9414 11.4089 20.4345 11.4089C20.9277 11.4089 21.3222 11.0108 21.3222 10.5131C21.3222 10.0153 20.9277 9.61719 20.4345 9.61719Z" fill="#EC6519"/>
<path d="M18.1068 14.6532C18.4009 14.6532 18.6394 14.4125 18.6394 14.1156C18.6394 13.8188 18.4009 13.5781 18.1068 13.5781C17.8127 13.5781 17.5742 13.8188 17.5742 14.1156C17.5742 14.4125 17.8127 14.6532 18.1068 14.6532Z" fill="#EC6519"/>
<path d="M17.0625 15.25C16.6285 15.25 16.2734 15.6083 16.2734 16.0463C16.2734 16.4843 16.6285 16.8426 17.0625 16.8426C17.4964 16.8426 17.8515 16.4843 17.8515 16.0463C17.8712 15.6083 17.5161 15.25 17.0625 15.25Z" fill="#EC6519"/>
<path d="M15.0316 16.3281C14.5779 16.3281 14.2031 16.7064 14.2031 17.1643C14.2031 17.6222 14.5779 18.0004 15.0316 18.0004C15.4853 18.0004 15.8601 17.6222 15.8601 17.1643C15.8601 16.7064 15.4853 16.3281 15.0316 16.3281Z" fill="#EC6519"/>
<path d="M12.6254 16.2656C12.369 16.2656 12.1125 16.405 11.9942 16.6439C11.8561 16.8828 11.8561 17.1615 11.9942 17.3805C12.1323 17.6194 12.369 17.7587 12.6254 17.7587C13.0396 17.7587 13.3552 17.4203 13.3552 17.0221C13.375 16.6041 13.0396 16.2656 12.6254 16.2656Z" fill="#EC6519"/>
<path d="M10.849 15.0469C10.5531 15.0469 10.3164 15.2858 10.3164 15.5844C10.3164 15.883 10.5531 16.1219 10.849 16.1219C11.1449 16.1219 11.3816 15.883 11.3816 15.5844C11.4013 15.3057 11.1449 15.0469 10.849 15.0469Z" fill="#EC6519"/>
<path d="M10.1406 13.4766C9.92362 13.4766 9.74609 13.6557 9.74609 13.8747C9.74609 14.0937 9.92362 14.2729 10.1406 14.2729C10.3576 14.2729 10.5351 14.0937 10.5351 13.8747C10.5351 13.6557 10.3576 13.4766 10.1406 13.4766Z" fill="#EC6519"/>
<path d="M10.099 11.4297C9.80311 11.4297 9.56641 11.6686 9.56641 11.9672C9.56641 12.2658 9.80311 12.5047 10.099 12.5047C10.3949 12.5047 10.6316 12.2658 10.6316 11.9672C10.6316 11.6686 10.3949 11.4297 10.099 11.4297Z" fill="#EC6519"/>
<path d="M11.1445 9.21875C10.7105 9.21875 10.3555 9.5771 10.3555 10.0151C10.3555 10.4531 10.7105 10.8114 11.1445 10.8114C11.5784 10.8114 11.9335 10.4531 11.9335 10.0151C11.9335 9.5771 11.5784 9.21875 11.1445 9.21875Z" fill="#EC6519"/>
<path d="M13.1761 8.0625C12.7224 8.0625 12.3477 8.44075 12.3477 8.89864C12.3477 9.35653 12.7224 9.73478 13.1761 9.73478C13.6298 9.73478 14.0046 9.35653 14.0046 8.89864C14.0046 8.44075 13.6298 8.0625 13.1761 8.0625Z" fill="#EC6519"/>
<path d="M15.5826 8.32031C15.3065 8.32031 15.0698 8.45967 14.9317 8.67866C14.7936 8.91756 14.7936 9.19627 14.9317 9.43517C15.0698 9.67406 15.3262 9.81342 15.5826 9.79351C15.9771 9.77361 16.2927 9.45508 16.2927 9.05691C16.2927 8.65875 15.9771 8.34022 15.5826 8.32031Z" fill="#EC6519"/>
<path d="M17.3373 9.91406C17.0414 9.91406 16.8047 10.153 16.8047 10.4516C16.8047 10.7502 17.0414 10.9891 17.3373 10.9891C17.6332 10.9891 17.8699 10.7502 17.8699 10.4516C17.8896 10.153 17.6529 9.91406 17.3373 9.91406Z" fill="#EC6519"/>
<path d="M18.0898 11.8047C17.8728 11.8047 17.6953 11.9839 17.6953 12.2028C17.6953 12.4218 17.8728 12.601 18.0898 12.601C18.3068 12.601 18.4843 12.4218 18.4843 12.2028C18.4843 11.9839 18.3068 11.8047 18.0898 11.8047Z" fill="#EC6519"/>
<path d="M20.792 12.4219C20.4172 12.4219 20.1016 12.7404 20.1016 13.1187C20.1016 13.4969 20.4172 13.8154 20.792 13.8154C21.1667 13.8154 21.4823 13.4969 21.4823 13.1187C21.4823 12.7404 21.1667 12.4219 20.792 12.4219Z" fill="#EC6519"/>
<path d="M23.6517 13.2812C23.2375 13.2812 22.9219 13.6197 22.9219 14.0179C22.9219 14.4359 23.2572 14.7545 23.6517 14.7545C24.0659 14.7545 24.3816 14.416 24.3816 14.0179C24.3816 13.6197 24.0659 13.2812 23.6517 13.2812Z" fill="#EC6519"/>
<path d="M22.9209 15.8828C22.5461 15.8828 22.2305 16.2013 22.2305 16.5796C22.2305 16.9579 22.5461 17.2764 22.9209 17.2764C23.2956 17.2764 23.6112 16.9579 23.6112 16.5796C23.6112 16.2013 23.3154 15.8828 22.9209 15.8828Z" fill="#EC6519"/>
<path d="M21.6777 18.0781C21.3621 18.0781 21.0859 18.3369 21.0859 18.6754C21.0859 18.9939 21.3424 19.2726 21.6777 19.2726C21.9933 19.2726 22.2497 18.9939 22.2497 18.6754C22.2497 18.3568 21.9933 18.098 21.6777 18.0781Z" fill="#EC6519"/>
<path d="M20.18 19.7109C20.0025 19.7109 19.8249 19.8105 19.7263 19.9697C19.6277 20.129 19.6277 20.3281 19.7263 20.4874C19.8249 20.6466 19.9827 20.7462 20.18 20.7462C20.4562 20.7462 20.6929 20.5272 20.6929 20.2285C20.6929 19.9498 20.4562 19.7109 20.18 19.7109Z" fill="#EC6519"/>
<path d="M18.6019 20.9062C18.3652 20.9062 18.168 21.1053 18.168 21.3442C18.168 21.5831 18.3652 21.7822 18.6019 21.7822C18.8386 21.7822 19.0359 21.5831 19.0359 21.3442C19.0359 21.1053 18.8386 20.9062 18.6019 20.9062Z" fill="#EC6519"/>
<path d="M16.8058 21.5781C16.5297 21.5781 16.293 21.7971 16.293 22.0957C16.293 22.3744 16.5099 22.6133 16.8058 22.6133C17.082 22.6133 17.3187 22.3944 17.3187 22.0957C17.299 21.7971 17.082 21.5781 16.8058 21.5781Z" fill="#EC6519"/>
<path d="M14.6972 21.9219C14.3816 21.9219 14.1055 22.1807 14.1055 22.5191C14.1055 22.8376 14.3619 23.1164 14.6972 23.1164C15.0128 23.1164 15.289 22.8576 15.289 22.5191C15.2693 22.1807 15.0128 21.9219 14.6972 21.9219Z" fill="#EC6519"/>
<path d="M12.2886 21.6797C11.8744 21.6797 11.5391 22.0181 11.5391 22.4362C11.5391 22.8543 11.8744 23.1927 12.2886 23.1927C12.7029 23.1927 13.0382 22.8543 13.0382 22.4362C13.0382 22.0181 12.7029 21.6797 12.2886 21.6797Z" fill="#EC6519"/>
<path d="M9.74311 20.7656C9.24998 20.7656 8.85547 21.1638 8.85547 21.6615C8.85547 22.1592 9.24998 22.5574 9.74311 22.5574C10.2362 22.5574 10.6308 22.1592 10.6308 21.6615C10.6505 21.1638 10.2362 20.7656 9.74311 20.7656Z" fill="#EC6519"/>
<path d="M7.51644 19.0547C7.14166 19.0547 6.7866 19.2538 6.58935 19.5723C6.39209 19.9107 6.39209 20.3089 6.58935 20.6473C6.7866 20.9858 7.14166 21.1849 7.51644 21.1649C8.08848 21.145 8.54216 20.6872 8.54216 20.1098C8.54216 19.5524 8.08848 19.0746 7.51644 19.0547Z" fill="#EC6519"/>
<path d="M5.64017 16.5C5.00895 16.5 4.49609 17.0176 4.49609 17.6547C4.49609 18.2917 5.00895 18.8093 5.64017 18.8093C6.27138 18.8093 6.78424 18.2917 6.78424 17.6547C6.78424 16.9977 6.27138 16.5 5.64017 16.5Z" fill="#EC6519"/>
<path d="M5.4878 14.8101C5.52333 14.3056 5.1469 13.8676 4.64702 13.8317C4.14715 13.7958 3.71313 14.1758 3.6776 14.6803C3.64208 15.1848 4.01851 15.6228 4.51838 15.6587C5.01825 15.6945 5.45228 15.3146 5.4878 14.8101Z" fill="#EC6519"/>
<path d="M5.25566 12.0257C5.27795 11.6195 4.96975 11.2719 4.56728 11.2494C4.1648 11.2269 3.82046 11.538 3.79817 11.9442C3.77588 12.3504 4.08408 12.6979 4.48656 12.7204C4.88903 12.7429 5.23337 12.4319 5.25566 12.0257Z" fill="#EC6519"/>
<path d="M5.26851 8.71875C4.89373 8.71875 4.57812 9.03728 4.57812 9.41553C4.57812 9.79379 4.89373 10.1123 5.26851 10.1123C5.6433 10.1123 5.9589 9.79379 5.9589 9.41553C5.9589 9.03728 5.6433 8.71875 5.26851 8.71875Z" fill="#EC6519"/>
<path d="M6.50871 6.75C6.29173 6.75 6.09447 6.84954 5.99585 7.04862C5.89722 7.22779 5.89722 7.46669 5.99585 7.64587C6.09447 7.82504 6.31145 7.94449 6.50871 7.94449C6.82431 7.94449 7.08074 7.66577 7.08074 7.34724C7.08074 7.00881 6.82431 6.75 6.50871 6.75Z" fill="#EC6519"/>
<path d="M8.00895 5.27344C7.7328 5.27344 7.49609 5.49243 7.49609 5.79105C7.49609 6.06976 7.71307 6.30866 8.00895 6.30866C8.30483 6.30866 8.52181 6.08967 8.52181 5.79105C8.52181 5.51233 8.28511 5.27344 8.00895 5.27344Z" fill="#EC6519"/>
<path d="M9.5863 4.24219C9.3496 4.24219 9.15234 4.44127 9.15234 4.68017C9.15234 4.91906 9.3496 5.11814 9.5863 5.11814C9.82301 5.11814 10.0203 4.91906 10.0203 4.68017C10.0203 4.42136 9.82301 4.24219 9.5863 4.24219Z" fill="#EC6519"/>
<path d="M11.38 3.42188C11.1039 3.42188 10.8672 3.64086 10.8672 3.93949C10.8672 4.2182 11.0842 4.4571 11.38 4.4571C11.6562 4.4571 11.8929 4.23811 11.8929 3.93949C11.8929 3.64086 11.6562 3.42188 11.38 3.42188Z" fill="#EC6519"/>
<path d="M13.4931 2.90625C13.2761 2.90625 13.0788 3.00579 12.9802 3.20487C12.8816 3.38404 12.8816 3.62294 12.9802 3.80212C13.0788 3.98129 13.2958 4.10074 13.4931 4.10074C13.8087 4.10074 14.0651 3.82202 14.0651 3.50349C14.0651 3.18496 13.8087 2.92616 13.4931 2.90625Z" fill="#EC6519"/>
<path d="M15.8992 2.80469C15.6231 2.80469 15.3666 2.94404 15.2286 3.18294C15.0905 3.42184 15.0905 3.72046 15.2286 3.95936C15.3666 4.19826 15.6231 4.33761 15.8992 4.33761C16.3135 4.33761 16.6488 3.97927 16.6488 3.5612C16.6488 3.14313 16.3135 2.80469 15.8992 2.80469Z" fill="#EC6519"/>
<path d="M18.3644 3.38281C17.8713 3.38281 17.457 3.78097 17.457 4.29859C17.457 4.79629 17.8515 5.21436 18.3644 5.21436C18.8575 5.21436 19.2718 4.8162 19.2718 4.29859C19.2718 3.80088 18.8575 3.38281 18.3644 3.38281Z" fill="#EC6519"/>
<path d="M20.6939 4.82031C20.1021 4.82031 19.6484 5.29811 19.6484 5.87544C19.6484 6.45278 20.1218 6.93057 20.6939 6.93057C21.2856 6.93057 21.7393 6.45278 21.7393 5.87544C21.7393 5.29811 21.2659 4.82031 20.6939 4.82031Z" fill="#EC6519"/>
<path d="M22.5476 7.20312C22.1334 7.20312 21.7586 7.42211 21.5416 7.78046C21.3247 8.13881 21.3247 8.57679 21.5416 8.93513C21.7586 9.29348 22.1334 9.51247 22.5476 9.51247C23.1788 9.49256 23.672 8.99486 23.672 8.3578C23.6523 7.74064 23.1591 7.22303 22.5476 7.20312Z" fill="#EC6519"/>
<path d="M23.591 10.375C23.2754 10.375 22.9597 10.5343 22.8019 10.813C22.6441 11.0917 22.6441 11.45 22.8019 11.7288C22.9597 12.0075 23.2754 12.1866 23.591 12.1667C24.0841 12.1468 24.4589 11.7487 24.4589 11.2709C24.4589 10.7931 24.0841 10.3949 23.591 10.375Z" fill="#EC6519"/>
<path d="M28.1858 12.9974C28.1858 13.8335 27.5151 14.5104 26.6866 14.5104C25.8582 14.5104 25.1875 13.8335 25.1875 12.9974C25.1875 12.1613 25.8582 11.4844 26.6866 11.4844C27.5151 11.5043 28.1858 12.1812 28.1858 12.9974Z" fill="#EC6519"/>
<path d="M102 15.3274C102 13.894 101.191 13.1375 99.9284 12.6199C98.9421 12.2218 98.0742 11.8833 97.4035 11.6046C96.7526 11.3458 96.1805 10.8879 96.1805 10.3902C96.1805 9.71333 97.009 9.31517 98.1136 9.31517C99.4155 9.31517 100.441 9.49434 101.408 9.59388H101.447C101.605 9.59388 101.704 9.47443 101.704 9.31517V8.20031C101.704 8.06096 101.585 7.94151 101.427 7.9216C100.915 7.80215 99.6128 7.52344 98.1925 7.52344C95.431 7.52344 94.1094 8.71792 94.1094 10.3902C94.1094 11.4453 94.5631 12.4806 95.8649 13.0181C97.1668 13.5556 99.8297 14.1927 99.8297 15.3075C99.8297 16.1835 99.4352 16.6613 98.0939 16.6613C96.7131 16.6613 95.3126 16.4622 94.7209 16.3825H94.6814C94.5236 16.3825 94.4053 16.502 94.4053 16.6613V17.7363C94.4053 17.8956 94.5433 18.015 94.6814 18.0349C95.3915 18.1942 96.7329 18.4331 98.0545 18.4331C101.072 18.4729 102 16.8404 102 15.3274Z" fill="#404040"/>
<path d="M72.8046 9.40035H69.8261V18.0405C69.8261 18.1997 69.688 18.3391 69.5302 18.3391H68.0508C67.893 18.3391 67.7549 18.1997 67.7549 18.0405V9.40035H64.7763C64.6185 9.40035 64.4805 9.30081 64.4805 9.12164V7.92715C64.4805 7.76789 64.6185 7.64844 64.7763 7.64844H72.8046C72.9624 7.64844 73.1005 7.76789 73.1005 7.92715V9.12164C73.1005 9.30081 72.9624 9.40035 72.8046 9.40035Z" fill="#404040"/>
<path d="M63.1815 14.2138V7.94278C63.1815 7.78351 63.0434 7.66406 62.8856 7.66406H61.4062C61.2484 7.66406 61.1103 7.78351 61.1103 7.94278V14.1939C61.1103 15.906 60.3213 16.7223 58.7236 16.7223C57.1258 16.7223 56.3368 15.906 56.3368 14.1939V7.94278C56.3368 7.78351 56.1987 7.66406 56.0409 7.66406H54.5615C54.4037 7.66406 54.2656 7.78351 54.2656 7.94278V14.1939C54.2656 17.3991 56.3368 18.4543 58.7236 18.4543C61.1103 18.4543 63.1815 17.419 63.1815 14.2138Z" fill="#404040"/>
<path d="M76.5358 13.6985H81.3094C81.4672 13.6985 81.6052 13.5591 81.6052 13.3999V12.3049C81.6052 12.1457 81.4672 12.0063 81.3094 12.0063H76.5358V10.6326C76.5358 9.37842 76.5753 9.33861 77.7193 9.33861H81.4869C81.6447 9.33861 81.7828 9.19925 81.7828 9.03999V8.0844C81.7828 7.86541 81.7039 7.80568 81.4869 7.76587C81.0135 7.68623 80.0469 7.54688 78.2716 7.54688C75.806 7.54688 74.4844 7.52697 74.4844 10.6326V15.3907C74.4844 18.4963 75.806 18.4764 78.2716 18.4764C80.0469 18.4764 81.0135 18.3371 81.4869 18.2574C81.7039 18.2375 81.7828 18.1579 81.7828 17.9389V16.9833C81.7828 16.8241 81.6447 16.6847 81.4869 16.6847H77.7193C76.595 16.6847 76.5358 16.6449 76.5358 15.3907V13.6985Z" fill="#404040"/>
<path d="M47.0827 13.6985H51.8562C52.014 13.6985 52.1521 13.5591 52.1521 13.3999V12.3049C52.1521 12.1457 52.014 12.0063 51.8562 12.0063H47.0827V10.6326C47.0827 9.37842 47.1221 9.33861 48.2662 9.33861H52.0338C52.1916 9.33861 52.3296 9.19925 52.3296 9.03999V8.0844C52.3296 7.86541 52.2507 7.80568 52.0338 7.76587C51.5604 7.68623 50.5938 7.54688 48.8185 7.54688C46.3529 7.54688 45.0312 7.52697 45.0312 10.6326V15.3907C45.0312 18.4963 46.3529 18.4764 48.8185 18.4764C50.5938 18.4764 51.5604 18.3371 52.0338 18.2574C52.2507 18.2375 52.3296 18.1579 52.3296 17.9389V16.9833C52.3296 16.8241 52.1916 16.6847 52.0338 16.6847H48.2662C47.1419 16.6847 47.0827 16.6449 47.0827 15.3907V13.6985Z" fill="#404040"/>
<path d="M92.8673 18.0385L90.5397 14.017C91.7626 13.5392 92.5517 12.6633 92.5517 11.0706V10.9512C92.5517 8.38302 90.441 7.54688 88.1332 7.54688C87.0483 7.54688 85.3716 7.62651 84.6023 7.74596C84.3064 7.78577 84.1289 7.90522 84.1289 8.20384V18.0584C84.1289 18.2176 84.267 18.357 84.4248 18.357H85.9239C86.0817 18.357 86.2001 18.2176 86.2001 18.0584V14.3355C86.5354 14.3555 87.7387 14.3953 88.1332 14.3953H88.4685L90.6186 18.0385C90.6975 18.1778 90.7566 18.3371 90.9144 18.3371H92.7292C92.8475 18.3371 92.9067 18.2574 92.9067 18.1579C92.9067 18.1181 92.887 18.0783 92.8673 18.0385ZM90.4805 11.0706C90.4805 12.3845 89.652 12.6832 88.1134 12.6832C87.857 12.6832 86.4171 12.6434 86.1803 12.6434V9.39833C86.4368 9.35851 87.7978 9.33861 88.1134 9.33861C89.6126 9.33861 90.4805 9.8164 90.4805 10.9512V11.0706Z" fill="#404040"/>
<path d="M43.4143 18.0385L41.067 14.017C42.29 13.5392 43.079 12.6633 43.079 11.0706V10.9512C43.079 8.38302 40.9684 7.54688 38.6605 7.54688C37.5756 7.54688 35.899 7.62651 35.1297 7.74596C34.8338 7.78577 34.6562 7.90522 34.6562 8.20384V18.0584C34.6562 18.2176 34.7943 18.357 34.9521 18.357H36.4513C36.6091 18.357 36.7274 18.2176 36.7274 18.0584V14.3355C37.0627 14.3555 38.266 14.3953 38.6605 14.3953H38.9958L41.1459 18.0385C41.2248 18.1778 41.284 18.3371 41.4418 18.3371H43.2565C43.3749 18.3371 43.434 18.2574 43.434 18.1579C43.434 18.1181 43.4341 18.0783 43.4143 18.0385ZM41.0276 11.0706C41.0276 12.3845 40.1991 12.6832 38.6802 12.6832C38.4238 12.6832 36.9838 12.6434 36.7471 12.6434V9.39833C37.0036 9.35851 38.3646 9.33861 38.6802 9.33861C40.1794 9.33861 41.0276 9.8164 41.0276 10.9512V11.0706Z" fill="#404040"/>
</g>
<defs>
<clipPath id="clip0_5621_101488">
<rect width="102" height="26" fill="white"/>
</clipPath>
</defs>
</svg>
