<svg width="161" height="16" viewBox="0 0 161 16" fill="none" xmlns="http://www.w3.org/2000/svg">
<path d="M4.03117 12.2182C4.4329 12.6615 4.95931 12.8831 5.61039 12.8831C6.26147 12.8831 6.78788 12.6615 7.18961 12.2182C7.59134 11.761 7.79221 11.0823 7.79221 10.1818C7.79221 9.28139 7.59134 8.60952 7.18961 8.16623C6.78788 7.70909 6.26147 7.48052 5.61039 7.48052C4.95931 7.48052 4.4329 7.70909 4.03117 8.16623C3.62944 8.60952 3.42857 9.28139 3.42857 10.1818C3.42857 11.0823 3.62944 11.761 4.03117 12.2182ZM4.88312 16C3.38701 16 2.19567 15.5013 1.30909 14.5039C0.436364 13.5065 0 12.0658 0 10.1818C0 8.29784 0.436364 6.85714 1.30909 5.85974C2.19567 4.86234 3.38701 4.36364 4.88312 4.36364C6.08831 4.36364 7.02338 4.77922 7.68831 5.61039H7.79221V1.24675H11.2208V15.7922H8.20779L7.8961 14.6494H7.79221C7.04416 15.5498 6.07446 16 4.88312 16Z" fill="#728899"/>
<path d="M18.8028 16C16.9742 16 15.5612 15.5013 14.5638 14.5039C13.5802 13.4926 13.0885 12.0519 13.0885 10.1818C13.0885 8.33939 13.5941 6.91255 14.6054 5.9013C15.6166 4.87619 17.0157 4.36364 18.8028 4.36364C20.5205 4.36364 21.8642 4.9039 22.8339 5.98442C23.8175 7.05108 24.3093 8.41558 24.3093 10.0779L24.2054 11.2208H16.517C16.7941 12.4675 17.5214 13.0909 18.6989 13.0909C19.5162 13.0909 20.1465 12.8139 20.5898 12.2597H24.1015C23.9906 12.703 23.8175 13.1255 23.582 13.5273C23.3465 13.9152 23.0279 14.31 22.6261 14.7117C22.2383 15.0996 21.7119 15.4113 21.0469 15.6468C20.382 15.8823 19.6339 16 18.8028 16ZM16.517 8.93507H20.8807C20.7699 8.47792 20.5205 8.09004 20.1326 7.77143C19.7586 7.43896 19.2807 7.27273 18.6989 7.27273C18.1032 7.27273 17.6183 7.42511 17.2443 7.72987C16.8703 8.03463 16.6279 8.43636 16.517 8.93507Z" fill="#728899"/>
<path d="M26.0674 15.7922V4.57143H29.0804L29.392 5.71429H29.4959C30.1332 4.81385 30.9643 4.36364 31.9894 4.36364C32.4743 4.36364 32.9107 4.43983 33.2985 4.59221C33.7003 4.73074 34.012 4.91082 34.2336 5.13247C34.4691 5.35411 34.6423 5.54113 34.7531 5.69351C34.8778 5.84589 34.9609 5.97056 35.0024 6.06753H35.1063C35.1756 5.91515 35.3003 5.72814 35.4804 5.50649C35.6743 5.28485 36.0345 5.04242 36.5609 4.77922C37.0873 4.50216 37.676 4.36364 38.3271 4.36364C39.4076 4.36364 40.3496 4.75844 41.1531 5.54805C41.9704 6.32381 42.3791 7.41818 42.3791 8.83117V15.7922H38.9505V9.45455C38.9505 8.80346 38.812 8.31169 38.5349 7.97922C38.2578 7.64675 37.8769 7.48052 37.392 7.48052C36.9488 7.48052 36.5955 7.64675 36.3323 7.97922C36.0691 8.31169 35.9375 8.80346 35.9375 9.45455V15.7922H32.5089V9.45455C32.5089 8.80346 32.3704 8.31169 32.0933 7.97922C31.8163 7.64675 31.4353 7.48052 30.9505 7.48052C30.5072 7.48052 30.1539 7.64675 29.8907 7.97922C29.6275 8.31169 29.4959 8.80346 29.4959 9.45455V15.7922H26.0674Z" fill="#728899"/>
<path d="M44.5536 15.7922V4.57143H47.9821V15.7922H44.5536ZM47.6497 3.22078C47.3034 3.5671 46.8393 3.74026 46.2575 3.74026C45.6756 3.74026 45.2116 3.5671 44.8653 3.22078C44.5189 2.86061 44.3458 2.41039 44.3458 1.87013C44.3458 1.32987 44.5189 0.88658 44.8653 0.54026C45.2116 0.180087 45.6756 0 46.2575 0C46.8393 0 47.3034 0.180087 47.6497 0.54026C48.0098 0.88658 48.1899 1.32987 48.1899 1.87013C48.1899 2.41039 48.0098 2.86061 47.6497 3.22078Z" fill="#728899"/>
<path d="M52.25 15.7922L49.237 4.57143H52.7695L54.4318 11.5325L56.198 4.57143H59.5227L61.289 11.5325L62.9513 4.57143H66.4838L63.4708 15.7922H59.6266L57.8604 9.55844L56.0942 15.7922H52.25Z" fill="#728899"/>
<path d="M72.7191 16C70.8906 16 69.4776 15.5013 68.4802 14.5039C67.4966 13.4926 67.0049 12.0519 67.0049 10.1818C67.0049 8.33939 67.5105 6.91255 68.5217 5.9013C69.533 4.87619 70.9321 4.36364 72.7191 4.36364C74.4369 4.36364 75.7806 4.9039 76.7503 5.98442C77.7339 7.05108 78.2256 8.41558 78.2256 10.0779L78.1217 11.2208H70.4334C70.7105 12.4675 71.4378 13.0909 72.6153 13.0909C73.4326 13.0909 74.0629 12.8139 74.5062 12.2597H78.0179C77.907 12.703 77.7339 13.1255 77.4984 13.5273C77.2629 13.9152 76.9443 14.31 76.5425 14.7117C76.1546 15.0996 75.6282 15.4113 74.9633 15.6468C74.2984 15.8823 73.5503 16 72.7191 16ZM70.4334 8.93507H74.7971C74.6862 8.47792 74.4369 8.09004 74.049 7.77143C73.675 7.43896 73.1971 7.27273 72.6153 7.27273C72.0196 7.27273 71.5347 7.42511 71.1607 7.72987C70.7867 8.03463 70.5443 8.43636 70.4334 8.93507Z" fill="#728899"/>
<path d="M84.1188 12.2182C84.5206 12.6615 85.047 12.8831 85.698 12.8831C86.3491 12.8831 86.8755 12.6615 87.2773 12.2182C87.679 11.761 87.8799 11.0823 87.8799 10.1818C87.8799 9.28139 87.679 8.60952 87.2773 8.16623C86.8755 7.70909 86.3491 7.48052 85.698 7.48052C85.047 7.48052 84.5206 7.70909 84.1188 8.16623C83.7171 8.60952 83.5162 9.28139 83.5162 10.1818C83.5162 11.0823 83.7171 11.761 84.1188 12.2182ZM86.4253 16C85.234 16 84.2643 15.5498 83.5162 14.6494H83.4123L83.1006 15.7922H80.0877V1.24675H83.5162V5.61039H83.6201C84.2851 4.77922 85.2201 4.36364 86.4253 4.36364C87.9214 4.36364 89.1058 4.86234 89.9786 5.85974C90.8651 6.85714 91.3084 8.29784 91.3084 10.1818C91.3084 12.0658 90.8651 13.5065 89.9786 14.5039C89.1058 15.5013 87.9214 16 86.4253 16Z" fill="#728899"/>
<path d="M95.7528 15.3558C95.3926 15.716 94.9493 15.8961 94.4229 15.8961C93.8965 15.8961 93.4532 15.716 93.093 15.3558C92.7328 14.9818 92.5528 14.5385 92.5528 14.026C92.5528 13.5134 92.7328 13.0771 93.093 12.7169C93.4532 12.3429 93.8965 12.1558 94.4229 12.1558C94.9493 12.1558 95.3926 12.3429 95.7528 12.7169C96.1129 13.0771 96.293 13.5134 96.293 14.026C96.293 14.5385 96.1129 14.9818 95.7528 15.3558Z" fill="#728899"/>
<path d="M102.428 16C101.513 16 100.717 15.8892 100.038 15.6675C99.3594 15.432 98.8329 15.1134 98.4589 14.7117C98.0849 14.31 97.8009 13.8944 97.607 13.4649C97.413 13.0355 97.2884 12.5645 97.2329 12.0519H100.765C100.821 12.329 101.001 12.5714 101.306 12.7792C101.61 12.987 101.984 13.0909 102.428 13.0909C103.536 13.0909 104.09 12.8485 104.09 12.3636C104.09 12.1281 103.931 11.9411 103.612 11.8026C103.294 11.6641 102.892 11.574 102.407 11.5325C101.936 11.4909 101.423 11.4009 100.869 11.2623C100.315 11.1238 99.7957 10.9506 99.3109 10.7429C98.8399 10.5351 98.4451 10.1887 98.1265 9.7039C97.8078 9.21905 97.6485 8.61645 97.6485 7.8961C97.6485 6.85714 98.071 6.01212 98.9161 5.36104C99.7611 4.6961 100.932 4.36364 102.428 4.36364C104.09 4.36364 105.323 4.73074 106.126 5.46494C106.93 6.18528 107.394 7.06493 107.519 8.1039H103.986C103.958 7.8684 103.813 7.67446 103.55 7.52208C103.3 7.35584 102.926 7.27273 102.428 7.27273C101.597 7.27273 101.181 7.51515 101.181 8C101.181 8.22164 101.34 8.3948 101.659 8.51948C101.978 8.64416 102.372 8.7342 102.843 8.78961C103.328 8.83117 103.848 8.92814 104.402 9.08052C104.956 9.21905 105.468 9.39221 105.939 9.6C106.424 9.80779 106.826 10.161 107.145 10.6597C107.463 11.1446 107.623 11.7472 107.623 12.4675C107.623 12.8831 107.546 13.2779 107.394 13.6519C107.242 14.026 106.985 14.4 106.625 14.774C106.279 15.1481 105.746 15.4459 105.025 15.6675C104.305 15.8892 103.439 16 102.428 16Z" fill="#728899"/>
<path d="M114.065 15.7922C112.735 15.7922 111.779 15.5152 111.197 14.961C110.616 14.3931 110.325 13.5273 110.325 12.3636V7.68831H108.558V4.57143H110.325L110.844 1.66234H113.753V4.57143H116.351V7.68831H113.753V11.7403C113.753 12.0035 113.843 12.2251 114.023 12.4052C114.203 12.5853 114.425 12.6753 114.688 12.6753H116.351V15.7922H114.065Z" fill="#728899"/>
<path d="M122.264 16C121.169 16 120.234 15.619 119.459 14.8571C118.697 14.0814 118.316 12.9385 118.316 11.4286V4.57143H121.744V10.9091C121.744 11.5325 121.897 12.0173 122.201 12.3636C122.506 12.71 122.943 12.8831 123.511 12.8831C124.037 12.8831 124.459 12.71 124.778 12.3636C125.111 12.0035 125.277 11.5186 125.277 10.9091V4.57143H128.705V15.7922H125.692L125.381 14.6494H125.277C124.487 15.5498 123.483 16 122.264 16Z" fill="#728899"/>
<path d="M134.51 12.2182C134.912 12.6615 135.438 12.8831 136.089 12.8831C136.74 12.8831 137.267 12.6615 137.668 12.2182C138.07 11.761 138.271 11.0823 138.271 10.1818C138.271 9.28139 138.07 8.60952 137.668 8.16623C137.267 7.70909 136.74 7.48052 136.089 7.48052C135.438 7.48052 134.912 7.70909 134.51 8.16623C134.108 8.60952 133.907 9.28139 133.907 10.1818C133.907 11.0823 134.108 11.761 134.51 12.2182ZM135.362 16C133.866 16 132.675 15.5013 131.788 14.5039C130.915 13.5065 130.479 12.0658 130.479 10.1818C130.479 8.29784 130.915 6.85714 131.788 5.85974C132.675 4.86234 133.866 4.36364 135.362 4.36364C136.567 4.36364 137.502 4.77922 138.167 5.61039H138.271V1.24675H141.7V15.7922H138.687L138.375 14.6494H138.271C137.523 15.5498 136.553 16 135.362 16Z" fill="#728899"/>
<path d="M144.087 15.7922V4.57143H147.515V15.7922H144.087ZM147.183 3.22078C146.837 3.5671 146.373 3.74026 145.791 3.74026C145.209 3.74026 144.745 3.5671 144.399 3.22078C144.052 2.86061 143.879 2.41039 143.879 1.87013C143.879 1.32987 144.052 0.88658 144.399 0.54026C144.745 0.180087 145.209 0 145.791 0C146.373 0 146.837 0.180087 147.183 0.54026C147.543 0.88658 147.723 1.32987 147.723 1.87013C147.723 2.41039 147.543 2.86061 147.183 3.22078Z" fill="#728899"/>
<path d="M159.035 14.4831C158.052 15.4944 156.673 16 154.9 16C153.127 16 151.749 15.4944 150.765 14.4831C149.782 13.4719 149.29 12.0381 149.29 10.1818C149.29 8.32554 149.782 6.89177 150.765 5.88052C151.749 4.86926 153.127 4.36364 154.9 4.36364C156.673 4.36364 158.052 4.86926 159.035 5.88052C160.019 6.89177 160.511 8.32554 160.511 10.1818C160.511 12.0381 160.019 13.4719 159.035 14.4831ZM153.321 12.2182C153.723 12.6615 154.249 12.8831 154.9 12.8831C155.551 12.8831 156.078 12.6615 156.479 12.2182C156.881 11.761 157.082 11.0823 157.082 10.1818C157.082 9.28139 156.881 8.60952 156.479 8.16623C156.078 7.70909 155.551 7.48052 154.9 7.48052C154.249 7.48052 153.723 7.70909 153.321 8.16623C152.919 8.60952 152.718 9.28139 152.718 10.1818C152.718 11.0823 152.919 11.761 153.321 12.2182Z" fill="#728899"/>
</svg>
