<svg width="300" height="64" viewBox="0 0 300 64" fill="none" xmlns="http://www.w3.org/2000/svg">
<g clip-path="url(#clip0_5591_100200)">
<mask id="mask0_5591_100200" style="mask-type:luminance" maskUnits="userSpaceOnUse" x="0" y="0" width="300" height="64">
<path d="M0 0H300V63.402H0V0Z" fill="white"/>
</mask>
<g mask="url(#mask0_5591_100200)">
<path fill-rule="evenodd" clip-rule="evenodd" d="M82.6995 31.7031C75.2365 31.7031 70.3045 35.3451 70.3045 41.0731C70.3045 52.0831 86.7415 48.7981 86.7415 54.3031C86.7415 56.0791 85.1865 57.0111 82.6985 57.0111C79.4565 57.0111 74.6585 55.1471 71.4595 52.3491L68.3945 58.4321C72.0815 61.4521 77.4125 63.4051 82.6095 63.4051C89.5395 63.4051 95.0485 60.1191 95.0485 53.9031C95.0485 42.6701 78.6125 45.7341 78.6125 40.3621C78.6125 38.8521 79.9895 38.0971 82.0325 38.0971C84.5645 38.0971 88.6955 39.4291 91.9825 41.3391L94.9595 35.1671C91.7615 33.0801 87.1855 31.7031 82.6995 31.7031ZM128.054 63.1391V32.0591H120.147V44.8461H107.265V32.0591H99.3575V63.1391H107.265V51.0621H120.147V63.1391H128.054ZM142.181 63.1391V32.0591H134.274V63.1391H142.181ZM148.4 32.0591H161.949C169.901 32.0591 174.476 35.9661 174.476 42.8931C174.476 50.1741 169.901 54.3921 161.949 54.3921H156.306V63.1381H148.4V32.0591ZM156.306 38.2751V48.1761H161.548C165.014 48.1761 167.013 46.4441 167.013 43.1591C167.013 39.9181 165.014 38.2751 161.548 38.2751H156.306ZM207.303 63.1391V32.0591H199.93V51.2391L185.581 32.0591H178.607V63.1391H186.025V44.0011L200.329 63.1371H207.303V63.1391ZM237.866 38.2751V32.0591H213.523V63.1391H238.355V56.9231H221.429V50.6631H236.267V44.4471H221.429V38.2751H237.866ZM261.499 46.8881L271.76 32.0591H262.475L256.478 41.1171L250.481 32.0591H241.287L251.681 47.2441L240.575 63.1391H249.772L256.478 53.2381L263.187 63.1381H272.649L261.499 46.8881ZM299.835 38.4081V32.0151H273.271V38.4081H282.555V63.1381H290.462V38.4081H299.835Z" fill="white"/>
<path fill-rule="evenodd" clip-rule="evenodd" d="M29.6353 28.354L41.7093 7.834L37.3183 0L20.4883 28.354H29.6353Z" fill="#75C422"/>
<path fill-rule="evenodd" clip-rule="evenodd" d="M58.54 47.7539C58.54 39.1729 51.222 31.7109 42.441 31.7109H18.66L13.904 39.5459H42.442C46.832 39.5459 50.492 43.2759 50.492 47.3809C50.492 51.8579 46.832 55.2149 42.442 55.2149H4.391L0 63.0499H44.27C52.32 62.6769 58.54 55.9619 58.54 47.7539Z" fill="white"/>
</g>
</g>
<defs>
<clipPath id="clip0_5591_100200">
<rect width="300" height="64" fill="white"/>
</clipPath>
</defs>
</svg>
