<svg width="187" height="44" viewBox="0 0 187 44" fill="none" xmlns="http://www.w3.org/2000/svg">
<path d="M180.055 43.8302C175.932 43.8302 173.146 41.289 173.146 37.016C173.146 32.7241 175.97 30.1641 180.055 30.1641C184.215 30.1641 187.001 32.7241 187.001 36.9783C187.001 41.2702 184.253 43.8302 180.055 43.8302ZM180.055 41.2513C182.935 41.2513 184.234 39.7831 184.234 37.016C184.234 34.1924 182.878 32.7241 180.055 32.7241C177.25 32.7241 175.895 34.1547 175.895 37.016C175.895 39.8395 177.231 41.2513 180.055 41.2513Z" fill="white"/>
<path d="M161.27 43.622V30.4453H163.98V35.6784L170.286 30.4453H174.202L167.99 35.6595L174.126 43.622H170.776L165.919 37.3537L163.98 38.9161V43.622H161.27Z" fill="white"/>
<path d="M148.311 43.622V30.4453H150.607L157.29 38.9725V30.4453H159.944V43.622H157.685L150.984 35.1325V43.622H148.311Z" fill="white"/>
<path d="M137.061 43.622V30.4453H147V33.043H139.771V35.4901H146.698V38.069H139.771V41.0432H147V43.622H137.061Z" fill="white"/>
<path d="M126.664 43.6409L123.953 43.5844V30.4453H129.299C132.029 30.4453 134.758 31.33 134.758 34.4548C134.758 36.0172 134.062 37.2031 132.669 37.8996L135.887 43.622H132.782L130.014 38.5584C129.77 38.5961 129.506 38.5961 129.261 38.5961H126.664V43.6409ZM129.374 36.0172C131.633 36.0172 132.029 35.6219 132.029 34.4548C132.029 33.3818 131.577 33.0054 129.261 33.0054H126.664V36.0172H129.374Z" fill="white"/>
<path d="M108.291 43.622L114.522 30.4453H116.705L122.917 43.622H119.905L118.287 40.1208H112.884L111.265 43.622H108.291ZM114.07 37.5607H117.119L115.576 34.2477L114.07 37.5607Z" fill="white"/>
<path d="M103.984 43.622L97.9414 30.4453H100.972L105.057 39.5937L109.16 30.4453H112.153L106.149 43.622H103.984Z" fill="white"/>
<path d="M88.7224 43.6409L86.0117 43.5844V30.4453H91.3577C94.0872 30.4453 96.8166 31.33 96.8166 34.4548C96.8166 36.0172 96.1202 37.2031 94.7272 37.8996L97.9461 43.622H94.8401L92.073 38.5584C91.8283 38.5961 91.5648 38.5961 91.3201 38.5961H88.7224V43.6409ZM91.433 36.0172C93.6919 36.0172 94.0872 35.6219 94.0872 34.4548C94.0872 33.3818 93.6354 33.0054 91.3201 33.0054H88.7224V36.0172H91.433Z" fill="white"/>
<path d="M70.3496 43.622L76.5803 30.4453H78.7639L84.9758 43.622H81.964L80.3451 40.1208H74.9426L73.3238 43.622H70.3496ZM76.1285 37.5607H79.178L77.6345 34.2477L76.1285 37.5607Z" fill="white"/>
<path d="M66.0425 43.622L60 30.4453H63.0306L67.1154 39.5937L71.219 30.4453H74.212L68.2072 43.622H66.0425Z" fill="white"/>
<path d="M170.636 25.9924L167.926 25.936V12.7969H173.272C176.001 12.7969 178.731 13.6816 178.731 16.8064C178.731 18.3687 178.034 19.5547 176.641 20.2511L179.86 25.9736H176.754L173.987 20.91C173.742 20.9476 173.479 20.9476 173.234 20.9476H170.636V25.9924ZM173.347 18.3687C175.606 18.3687 176.001 17.9734 176.001 16.8064C176.001 15.7334 175.549 15.3569 173.234 15.3569H170.636V18.3687H173.347Z" fill="white"/>
<path d="M156.674 25.9736V12.7969H166.613V15.3946H159.384V17.8417H166.312V20.4206H159.384V23.3947H166.613V25.9736H156.674Z" fill="white"/>
<path d="M142.961 25.9736V12.7969H148.382C152.693 12.7969 155.366 15.0369 155.366 19.3288C155.366 23.7147 152.505 25.9736 147.987 25.9736H142.961ZM148.006 23.4136C151.338 23.4136 152.618 22.0959 152.618 19.3476C152.618 16.5993 151.432 15.3757 148.382 15.3757H145.672V23.4136H148.006Z" fill="white"/>
<path d="M130.002 25.9736V12.7969H132.298L138.981 21.3241V12.7969H141.635V25.9736H139.376L132.675 17.484V25.9736H130.002Z" fill="white"/>
<path d="M114.34 25.9736L120.571 12.7969H122.754L128.966 25.9736H125.954L124.335 22.4724H118.933L117.314 25.9736H114.34ZM120.119 19.9123H123.168L121.625 16.5993L120.119 19.9123Z" fill="white"/>
<path d="M98.1816 25.9736L103.866 19.0652L98.5393 12.7969H102.041L105.636 17.1075L109.231 12.7969H112.638L107.349 19.0841L113.203 25.9736H109.721L105.579 21.0606L101.551 25.9736H98.1816Z" fill="white"/>
<path d="M86.9316 25.9736V12.7969H96.8707V15.3946H89.6423V17.8417H96.5695V20.4206H89.6423V23.3947H96.8707V25.9736H86.9316Z" fill="white"/>
<path d="M75.6621 25.9736V12.7969H78.3728V23.3947H85.62V25.9736H75.6621Z" fill="white"/>
<path d="M60 25.9736L66.2307 12.7969H68.4143L74.6262 25.9736H71.6143L69.9955 22.4724H64.593L62.9742 25.9736H60ZM65.7789 19.9123H68.8284L67.2849 16.5993L65.7789 19.9123Z" fill="white"/>
<path d="M25.0769 44L5 0H13.9231L34 44H25.0769Z" fill="#BF271B"/>
<path d="M41.0769 44L21 0H29.9231L50 44H41.0769Z" fill="#BF271B"/>
<circle cx="5.5" cy="38.5" r="5.5" fill="#BF271B"/>
<ellipse cx="50" cy="5.5" rx="5" ry="5.5" fill="#BF271B"/>
</svg>
